<?xml version="1.0" encoding="UTF-8" standalone="no"?>
<svg
   xmlns:dc="http://purl.org/dc/elements/1.1/"
   xmlns:cc="http://creativecommons.org/ns#"
   xmlns:rdf="http://www.w3.org/1999/02/22-rdf-syntax-ns#"
   xmlns:svg="http://www.w3.org/2000/svg"
   xmlns="http://www.w3.org/2000/svg"
   xmlns:sodipodi="http://sodipodi.sourceforge.net/DTD/sodipodi-0.dtd"
   xmlns:inkscape="http://www.inkscape.org/namespaces/inkscape"
   sodipodi:docname="logo.svg"
   inkscape:version="1.0.2 (1.0.2+r75+1)"
   id="svg8"
   version="1.1"
   viewBox="0 0 210 297"
   height="297mm"
   width="210mm">
  <defs
     id="defs2" />
  <sodipodi:namedview
     inkscape:snap-global="true"
     inkscape:window-maximized="1"
     inkscape:window-y="38"
     inkscape:window-x="74"
     inkscape:window-height="1006"
     inkscape:window-width="1846"
     showgrid="false"
     inkscape:document-rotation="0"
     inkscape:current-layer="layer1"
     inkscape:document-units="mm"
     inkscape:cy="512.05349"
     inkscape:cx="464.63293"
     inkscape:zoom="0.81255531"
     inkscape:pageshadow="2"
     inkscape:pageopacity="0.0"
     borderopacity="1.0"
     bordercolor="#666666"
     pagecolor="#ffffff"
     id="base" />
  <metadata
     id="metadata5">
    <rdf:RDF>
      <cc:Work
         rdf:about="">
        <dc:format>image/svg+xml</dc:format>
        <dc:type
           rdf:resource="http://purl.org/dc/dcmitype/StillImage" />
        <dc:title />
      </cc:Work>
    </rdf:RDF>
  </metadata>
  <g
     id="layer1"
     inkscape:groupmode="layer"
     inkscape:label="Layer 1">
    <path
       id="path38"
       style="fill:#f69200;fill-opacity:1;stroke:#383838;stroke-width:7.55906;stroke-miterlimit:4;stroke-dasharray:none;stroke-opacity:1"
       d="M 406.72461 250.76172 C 400.36009 250.80742 394.45449 251.04891 389.49023 251.52344 C 375.57086 252.88618 360.28843 255.31954 355.9082 256.87695 C 349.48387 259.21308 349.19145 260.38147 348.60742 281.50391 L 348.12109 300.38672 L 335.27148 304.57227 C 321.44943 309.14717 304.41534 316.2529 296.43359 320.73047 L 291.4707 323.55273 L 289.62109 321.50977 C 288.64771 320.34171 282.22384 314.20981 275.41016 307.88281 C 263.92422 297.07825 262.75582 296.29883 259.1543 296.29883 C 254.77407 296.29883 246.403 301.55463 229.85547 314.69531 C 210.19311 330.26946 177.0011 365.99354 171.35547 377.77148 C 168.24064 384.29317 169.40732 386.33673 184.68945 400.9375 L 197.92773 413.68945 L 193.54688 421.86523 C 187.41456 433.25382 182.45086 444.74056 178.16797 457.39453 L 174.56641 468.10156 L 154.41797 468.58789 L 134.26953 469.07422 L 131.64062 472.0918 C 128.81781 475.20662 128.13668 478.22346 124.53516 501.19531 C 122.8804 511.8052 122.97774 553.17557 124.53516 564.4668 C 126.57926 577.99686 128.52498 588.6062 129.5957 591.23438 C 131.63981 596.10127 133.48953 596.58753 154.80664 597.07422 L 174.56641 597.56055 L 178.16797 608.26758 C 182.45086 620.92155 187.41456 632.40796 193.54688 643.69922 L 197.92773 651.97266 L 184.20312 665.11328 C 168.82366 680.00606 167.94863 681.66191 171.35547 688.18359 C 178.07182 700.74024 210.58246 735.78198 229.85547 750.9668 C 246.403 764.10746 254.77407 769.36328 259.1543 769.36328 C 262.75582 769.36328 263.92422 768.58383 275.41016 757.7793 C 282.22384 751.45229 288.64771 745.32041 289.62109 744.15234 L 291.4707 742.10938 L 296.43359 744.93164 C 304.41534 749.40921 321.44943 756.51491 335.27148 761.08984 L 348.12109 765.27539 L 348.60742 784.35352 L 349.09375 803.43164 L 352.01367 806.35156 C 354.64181 808.88237 356.19966 809.36902 367.10156 811.12109 C 398.6392 816.18271 426.77117 816.37733 459.57422 811.70508 C 480.794 808.59026 480.98828 808.3969 480.98828 782.79688 L 480.98828 764.98242 L 488.67773 762.8418 C 500.74769 759.53229 514.47231 754.08154 526.93164 747.94922 C 533.25865 744.8344 538.61229 742.6927 538.9043 743.08203 C 539.19645 743.56872 545.52251 749.60295 553.01758 756.61133 C 570.83049 773.45086 570.24668 773.3541 591.36914 757.39062 C 616.48244 738.40965 647.43573 706.5795 657.65625 689.05859 C 661.84181 681.95289 661.06405 680.39572 645.39258 665.21094 L 631.66797 651.97266 L 637.11914 641.84961 C 642.86213 630.94771 649.28683 615.47158 652.79102 604.375 L 654.93164 597.56055 L 675.08008 597.07422 L 695.32812 596.58789 L 697.95508 593.57031 C 700.09652 591.13686 701.07051 588.60537 702.33594 581.40234 C 707.98153 549.67004 708.07853 518.03465 702.82227 487.37305 C 701.75153 481.33805 700.48639 475.4021 699.90234 474.13672 C 697.85826 469.56183 695.91148 469.07462 674.78906 468.58789 L 654.93164 468.10156 L 652.79102 461.28711 C 649.28683 450.19053 642.86213 434.7144 637.11914 423.8125 L 631.66797 413.68945 L 645.39258 400.45117 C 660.77204 385.65572 661.64902 384.00017 658.24219 377.47852 C 652.20719 366.18726 626.11863 337.17993 608.01367 321.70312 C 588.15664 304.6689 575.69738 296.29883 570.34375 296.29883 C 566.83956 296.29883 565.57423 297.27284 553.01758 309.05078 C 545.52251 316.05915 539.1963 322.09338 538.9043 322.58008 C 538.61214 322.96943 533.25865 320.82772 526.93164 317.71289 C 514.47231 311.58057 500.74769 306.12982 488.67773 302.82031 L 480.98828 300.67969 L 480.98828 282.67188 C 480.98828 263.49621 480.59866 261.4524 476.12109 258.24023 C 470.50589 254.0486 434.3042 250.56369 406.72461 250.76172 z M 409.05078 325.73242 C 420.82372 325.80643 439.2424 326.8627 446.93945 328.04688 C 463.16292 330.54966 478.80828 334.98186 493.62695 341.09375 L 422.78516 341.09375 L 467.62305 382.67969 L 557.61719 382.67969 C 585.65929 409.34413 606.3469 443.80456 615.99414 482.66602 C 620.50527 501.16155 621.63281 510.85993 621.63281 532.85156 C 621.63281 554.8432 620.50527 564.54158 615.99414 583.03711 C 595.69415 664.68813 527.46321 726.04068 443.55664 738.2207 C 435.33875 739.42504 419.91142 739.87317 406.33203 739.56445 C 398.29407 739.38171 390.90342 738.93358 386.03906 738.2207 C 375.82017 736.73731 365.83426 734.52471 356.13867 731.63477 C 286.22435 710.79564 231.42924 654.74395 213.60156 583.03711 C 209.09045 564.54158 207.96289 554.8432 207.96289 532.85156 C 207.96289 510.85993 209.09045 501.16155 213.60156 482.66602 C 223.22933 443.85963 243.84502 409.38939 272.00195 382.67969 L 389.66211 382.67969 L 389.66211 470.64648 L 371.07812 453.41016 L 371.07812 615.03516 L 389.66211 597.79883 L 389.66211 700.50977 L 439.67188 654.10352 L 439.67188 551.41211 L 458.20508 534.22266 L 439.67188 517.0332 L 439.67188 411.375 L 363.89648 341.09375 L 336.23047 341.09375 C 344.80722 337.56901 353.67146 334.58892 362.78516 332.20898 C 363.50512 332.02097 364.22616 331.83674 364.94922 331.65625 C 374.42255 329.28792 381.97954 328.04759 400.13672 326.01758 C 401.38805 325.86116 403.30258 325.77349 405.66797 325.74219 C 406.71353 325.72819 407.84786 325.72442 409.05078 325.73242 z "
       transform="scale(0.26458333)" />
    <path
       id="path2850"
       style="fill:#f69200;fill-opacity:1;stroke:#383838;stroke-width:8.04949;stroke-miterlimit:4;stroke-dasharray:none;stroke-opacity:1"
       d="m 439.67186,708.73632 v 15.58593 l -16.79688,-2e-5 z"
       transform="scale(0.26458333)"
       sodipodi:nodetypes="cccc" />
    <path
       sodipodi:nodetypes="cccc"
       id="path948"
       d="m 68.46464,119.56401 v 42.76312 l 23.051951,-21.38156 z"
       style="fill:#f69200;stroke:#383838;stroke-width:2;stroke-linecap:butt;stroke-linejoin:miter;stroke-miterlimit:4;stroke-dasharray:none;stroke-opacity:1;fill-opacity:1" />
    <path
       style="fill:#f69200;stroke:#383838;stroke-width:2;stroke-linecap:butt;stroke-linejoin:miter;stroke-miterlimit:4;stroke-dasharray:none;stroke-opacity:1;fill-opacity:1"
       d="m 127.89784,119.56401 v 42.76312 l 23.05195,-21.38156 z"
       id="path948-4"
       sodipodi:nodetypes="cccc" />
  </g>
</svg>
