<?xml version="1.0" encoding="UTF-8" standalone="no"?>
<svg
   xmlns:dc="http://purl.org/dc/elements/1.1/"
   xmlns:cc="http://creativecommons.org/ns#"
   xmlns:rdf="http://www.w3.org/1999/02/22-rdf-syntax-ns#"
   xmlns:svg="http://www.w3.org/2000/svg"
   xmlns="http://www.w3.org/2000/svg"
   xmlns:sodipodi="http://sodipodi.sourceforge.net/DTD/sodipodi-0.dtd"
   xmlns:inkscape="http://www.inkscape.org/namespaces/inkscape"
   width="157.3858mm"
   height="152.30899mm"
   viewBox="0 0 157.3858 152.30899"
   version="1.1"
   id="svg8"
   inkscape:version="1.0.2 (1.0.2+r75+1)"
   sodipodi:docname="logo_v2.svg">
  <defs
     id="defs2">
    <rect
       x="55.592064"
       y="40.624969"
       width="111.53672"
       height="131.87628"
       id="rect1009" />
    <rect
       x="-62.006531"
       y="80.180855"
       width="3.2072344"
       height="16.036173"
       id="rect1003" />
  </defs>
  <sodipodi:namedview
     showborder="false"
     id="base"
     pagecolor="#ffffff"
     bordercolor="#666666"
     borderopacity="1.0"
     inkscape:pageopacity="0.0"
     inkscape:pageshadow="2"
     inkscape:zoom="1.8474053"
     inkscape:cx="273.96687"
     inkscape:cy="267.17619"
     inkscape:document-units="mm"
     inkscape:current-layer="layer1"
     inkscape:document-rotation="0"
     showgrid="false"
     inkscape:window-width="923"
     inkscape:window-height="1006"
     inkscape:window-x="997"
     inkscape:window-y="38"
     inkscape:window-maximized="0"
     inkscape:snap-global="true" />
  <metadata
     id="metadata5">
    <rdf:RDF>
      <cc:Work
         rdf:about="">
        <dc:format>image/svg+xml</dc:format>
        <dc:type
           rdf:resource="http://purl.org/dc/dcmitype/StillImage" />
        <dc:title />
      </cc:Work>
    </rdf:RDF>
  </metadata>
  <g
     transform="translate(-31.087121,-64.842481)"
     inkscape:label="Layer 1"
     inkscape:groupmode="layer"
     id="layer1">
    <path
       id="path38"
       style="fill:#f69200;fill-opacity:1;stroke:#383838;stroke-width:11.3386;stroke-miterlimit:4;stroke-dasharray:none;stroke-opacity:1"
       d="M 289.22852 5.6875 C 282.86399 5.7331986 276.96035 5.9746941 271.99609 6.4492188 C 258.07672 7.8119576 242.79429 10.24532 238.41406 11.802734 C 231.98973 14.138857 231.69731 15.307253 231.11328 36.429688 L 230.62695 55.3125 L 217.77734 59.498047 C 203.95529 64.07295 186.9212 71.178681 178.93945 75.65625 L 173.97461 78.478516 L 172.12695 76.435547 C 171.15357 75.267488 164.72775 69.135587 157.91406 62.808594 C 146.42813 52.004028 145.25972 51.224609 141.6582 51.224609 C 137.27798 51.224609 128.9069 56.48041 112.35938 69.621094 C 92.697018 85.195238 59.505003 120.91932 53.859375 132.69727 C 50.744545 139.21895 51.913182 141.26251 67.195312 155.86328 L 80.433594 168.61523 L 76.052734 176.79102 C 69.920417 188.1796 64.956717 199.66634 60.673828 212.32031 L 57.072266 223.02734 L 36.923828 223.51367 L 16.773438 224 L 14.146484 227.01758 C 11.323669 230.1324 10.642535 233.14924 7.0410156 256.12109 C 5.3862629 266.73098 5.4836008 308.10135 7.0410156 319.39258 C 9.085124 332.92264 11.030841 343.53199 12.101562 346.16016 C 14.145671 351.02705 15.99539 351.51331 37.3125 352 L 57.072266 352.48633 L 60.673828 363.19531 C 64.956717 375.84928 69.920417 387.33374 76.052734 398.625 L 80.433594 406.89844 L 66.708984 420.03906 C 51.329516 434.93184 50.452532 436.58769 53.859375 443.10938 C 60.575724 455.66602 93.08637 490.70776 112.35938 505.89258 C 128.9069 519.03324 137.27798 524.28906 141.6582 524.28906 C 145.25972 524.28906 146.42813 523.51157 157.91406 512.70703 C 164.72775 506.38003 171.15357 500.24619 172.12695 499.07812 L 173.97461 497.03516 L 178.93945 499.85742 C 186.9212 504.33499 203.95529 511.4407 217.77734 516.01562 L 230.62695 520.20117 L 231.11328 539.2793 L 231.59961 558.35742 L 234.51953 561.27734 C 237.14767 563.80815 238.70552 564.2948 249.60742 566.04688 C 281.14506 571.10849 309.27508 571.30311 342.07812 566.63086 C 363.2979 563.51604 363.49414 563.32268 363.49414 537.72266 L 363.49414 519.9082 L 371.18359 517.76758 C 383.25355 514.45807 396.97817 509.00732 409.4375 502.875 C 415.7645 499.76018 421.11815 497.61848 421.41016 498.00781 C 421.70231 498.4945 428.02837 504.52873 435.52344 511.53711 C 453.33635 528.37664 452.75254 528.27988 473.875 512.31641 C 498.9883 493.33543 529.94159 461.50528 540.16211 443.98438 C 544.34767 436.87867 543.56991 435.3215 527.89844 420.13672 L 514.17383 406.89844 L 519.625 396.77539 C 525.36799 385.87349 531.79073 370.39736 535.29492 359.30078 L 537.4375 352.48633 L 557.58594 352 L 577.83203 351.51367 L 580.46094 348.49609 C 582.60238 346.06264 583.57637 343.53115 584.8418 336.32812 C 590.48739 304.59582 590.58439 272.96239 585.32812 242.30078 C 584.25738 236.26578 582.99225 230.32789 582.4082 229.0625 C 580.36412 224.48761 578.41734 224.0004 557.29492 223.51367 L 537.4375 223.02734 L 535.29492 216.21289 C 531.79073 205.11631 525.36799 189.64018 519.625 178.73828 L 514.17383 168.61523 L 527.89844 155.37695 C 543.2779 140.5815 544.15292 138.92595 540.74609 132.4043 C 534.7111 121.11305 508.62449 92.107666 490.51953 76.630859 C 470.6625 59.596638 458.20323 51.224609 452.84961 51.224609 C 449.34542 51.224609 448.08009 52.198617 435.52344 63.976562 C 428.02837 70.984929 421.70216 77.019166 421.41016 77.505859 C 421.118 77.895211 415.7645 75.753501 409.4375 72.638672 C 396.97817 66.506351 383.25355 61.055603 371.18359 57.746094 L 363.49414 55.605469 L 363.49414 37.597656 C 363.49414 18.421989 363.10452 16.378183 358.62695 13.166016 C 353.01175 8.9743816 316.80811 5.4894726 289.22852 5.6875 z M 152.75391 139.28516 L 272.31836 139.28516 L 272.31836 225.71289 L 253.58398 208.33594 L 253.58398 369.96094 L 272.31836 352.58398 L 272.31836 456.79688 L 322.02734 410.38281 L 322.02734 306.47852 L 340.71094 289.14844 L 322.02734 271.81836 L 322.02734 164.73828 L 345.86523 139.28516 L 441.86328 139.28516 C 469.01964 165.71085 489.0537 199.53975 498.5 237.5918 C 503.01113 256.08733 504.13867 265.78571 504.13867 287.77734 C 504.13867 309.76898 503.01113 319.46736 498.5 337.96289 C 478.20001 419.61391 409.96907 480.96646 326.0625 493.14648 C 316.67158 494.52272 297.86601 494.91209 283.16211 494.3125 C 277.38235 494.07682 272.23626 493.68745 268.54492 493.14648 C 258.81758 491.73444 249.30064 489.66145 240.04492 486.97266 C 169.46214 466.4683 114.05402 410.14806 96.107422 337.96289 C 91.596312 319.46736 90.46875 309.76898 90.46875 287.77734 C 90.46875 265.78571 91.596312 256.08733 96.107422 237.5918 C 105.53439 199.59476 125.49392 165.7535 152.75391 139.28516 z "
       transform="matrix(0.26458333,0,0,0.26458333,31.087121,64.842481)" />
    <path
       d="m 115.86776,184.84151 v 5.81186 h -8.1343 z"
       style="fill:#f69200;fill-opacity:1;stroke:#383838;stroke-width:3.34459;stroke-miterlimit:4;stroke-dasharray:none;stroke-opacity:1"
       id="path1507"
       sodipodi:nodetypes="cccc" />
    <path
       d="m 400.35537,325.99169 c -0.075,0.008 -0.14788,0.017 -0.21866,0.0259 -18.15718,2.03001 -25.71416,3.27034 -35.18749,5.63867 -2.47983,0.61902 -4.94175,1.282 -7.38489,1.98806 m 0,0 c -9.06791,2.62057 -17.87729,5.83447 -26.38464,9.59592 m 167.46874,0 c -16.28962,-7.23055 -33.64129,-12.40606 -51.70899,-15.19335 -7.69705,-1.18418 -26.11573,-2.24045 -37.88867,-2.31446 -3.77039,-0.0237 -6.8586,0.0532 -8.6954,0.25927"
       transform="scale(0.26458333)"
       style="fill:none;fill-opacity:1;stroke:#383838;stroke-width:9.44882;stroke-miterlimit:4;stroke-dasharray:none;stroke-opacity:1"
       id="path1491" />
    <path
       style="fill:#f69200;fill-opacity:1;stroke:#383838;stroke-width:2.5;stroke-linecap:butt;stroke-linejoin:miter;stroke-miterlimit:4;stroke-dasharray:none;stroke-opacity:1"
       d="m 68.46464,119.56401 v 42.76312 l 23.051951,-21.38156 z"
       id="path948"
       sodipodi:nodetypes="cccc" />
    <path
       sodipodi:nodetypes="cccc"
       id="path948-4"
       d="m 127.89784,119.56401 v 42.76312 l 23.05195,-21.38156 z"
       style="fill:#f69200;fill-opacity:1;stroke:#383838;stroke-width:2.5;stroke-linecap:butt;stroke-linejoin:miter;stroke-miterlimit:4;stroke-dasharray:none;stroke-opacity:1" />
    <text
       xml:space="preserve"
       id="text1001"
       style="font-style:normal;font-weight:normal;font-size:10.5833px;line-height:1.25;font-family:sans-serif;letter-spacing:0px;word-spacing:0px;white-space:pre;shape-inside:url(#rect1003);fill:#000000;fill-opacity:1;stroke:none;stroke-miterlimit:4;stroke-dasharray:none;"><tspan
         style="visibility:hidden"
         x="-62.005859"
         y="105.58054"><tspan
           dx="0 6.4647012"
           style="stroke-miterlimit:4;stroke-dasharray:none">T
</tspan></tspan></text>
    <g
       aria-label="T"
       id="text1007"
       style="font-style:normal;font-variant:normal;font-weight:normal;font-stretch:normal;font-size:50.8px;line-height:1.25;font-family:'Berlin Sans FB';-inkscape-font-specification:'Berlin Sans FB';letter-spacing:0px;word-spacing:0px;white-space:pre;shape-inside:url(#rect1009);fill:none;fill-opacity:1;stroke:#000000;stroke-width:0;stroke-miterlimit:4;stroke-dasharray:none;stroke-opacity:1"
       transform="matrix(2.7760924,0,0,2.7760924,-86.721744,-54.294243)" />
  </g>
</svg>
