<?xml version="1.0" encoding="UTF-8" standalone="no"?>
<svg
   xmlns:dc="http://purl.org/dc/elements/1.1/"
   xmlns:cc="http://creativecommons.org/ns#"
   xmlns:rdf="http://www.w3.org/1999/02/22-rdf-syntax-ns#"
   xmlns:svg="http://www.w3.org/2000/svg"
   xmlns="http://www.w3.org/2000/svg"
   xmlns:sodipodi="http://sodipodi.sourceforge.net/DTD/sodipodi-0.dtd"
   xmlns:inkscape="http://www.inkscape.org/namespaces/inkscape"
   sodipodi:docname="logo.svg"
   inkscape:version="1.0 (4035a4fb49, 2020-05-01)"
   id="svg8"
   version="1.1"
   viewBox="0 0 210 297"
   height="297mm"
   width="210mm">
  <defs
     id="defs2" />
  <sodipodi:namedview
     inkscape:snap-global="true"
     inkscape:window-maximized="1"
     inkscape:window-y="-8"
     inkscape:window-x="-8"
     inkscape:window-height="1017"
     inkscape:window-width="1920"
     showgrid="false"
     inkscape:document-rotation="0"
     inkscape:current-layer="layer1"
     inkscape:document-units="mm"
     inkscape:cy="422.07794"
     inkscape:cx="288.52594"
     inkscape:zoom="0.49497475"
     inkscape:pageshadow="2"
     inkscape:pageopacity="0.0"
     borderopacity="1.0"
     bordercolor="#666666"
     pagecolor="#ffffff"
     id="base" />
  <metadata
     id="metadata5">
    <rdf:RDF>
      <cc:Work
         rdf:about="">
        <dc:format>image/svg+xml</dc:format>
        <dc:type
           rdf:resource="http://purl.org/dc/dcmitype/StillImage" />
        <dc:title></dc:title>
      </cc:Work>
    </rdf:RDF>
  </metadata>
  <g
     id="layer1"
     inkscape:groupmode="layer"
     inkscape:label="Layer 1">
    <path
       id="path38"
       d="m 103.05253,66.548797 c -3.682835,0.360558 -7.726232,1.004411 -8.885168,1.416477 -1.699772,0.618099 -1.777034,0.927148 -1.931559,6.515792 l -0.12877,4.996299 -3.399544,1.107428 c -3.657085,1.210443 -8.164056,3.090494 -10.275894,4.275184 l -1.31346,0.746869 -0.489328,-0.540837 c -0.257542,-0.309049 -1.957314,-1.931559 -3.760102,-3.605576 -3.038986,-2.858708 -3.348036,-3.064741 -4.300938,-3.064741 -1.158935,0 -3.37379,1.390723 -7.75199,4.867529 -5.202332,4.120659 -13.984487,13.572421 -15.478226,16.68867 -0.824132,1.725529 -0.515083,2.266359 3.528314,6.129479 l 3.502561,3.37379 -1.158936,2.16335 c -1.622509,3.01323 -2.93597,6.05222 -4.069151,9.40025 l -0.952902,2.83295 -5.331103,0.12877 -5.331103,0.12878 -0.695361,0.79837 c -0.74687,0.82413 -0.927149,1.62251 -1.880051,7.70048 -0.43782,2.8072 -0.412066,13.75271 0,16.74018 0.540837,3.57983 1.055919,6.38702 1.339214,7.08239 0.540837,1.2877 1.030165,1.41647 6.670317,1.54524 l 5.228087,0.12877 0.952902,2.83296 c 1.133181,3.34803 2.446642,6.38702 4.069151,9.3745 l 1.158936,2.1891 -3.631331,3.4768 c -4.069151,3.94038 -4.300938,4.3782 -3.399544,6.10373 1.777034,3.32228 10.37891,12.59376 15.478226,16.61141 4.3782,3.4768 6.593055,4.86753 7.75199,4.86753 0.952902,0 1.261952,-0.20604 4.300938,-3.06474 1.802788,-1.67402 3.50256,-3.29653 3.760102,-3.60558 l 0.489328,-0.54084 1.31346,0.74687 c 2.111838,1.18469 6.618809,3.06474 10.275894,4.27519 l 3.399544,1.10742 0.12877,5.04781 0.128771,5.04781 0.772623,0.77262 c 0.695362,0.66961 1.107428,0.79838 3.991889,1.26195 8.344334,1.33922 15.787274,1.39073 24.466414,0.15453 5.6144,-0.82413 5.66591,-0.87564 5.66591,-7.64898 v -4.713 l 2.03457,-0.56659 c 3.19351,-0.87564 6.82484,-2.31787 10.12137,-3.94038 1.67402,-0.82413 3.0905,-1.39072 3.16776,-1.28771 0.0773,0.12877 1.75128,1.72553 3.73435,3.57983 4.713,4.45546 4.55847,4.4297 10.14712,0.20603 6.64456,-5.02205 14.83437,-13.44365 17.53855,-18.07939 1.10743,-1.88005 0.9014,-2.29212 -3.24501,-6.30976 l -3.63134,-3.50256 1.44223,-2.67843 c 1.5195,-2.88446 3.21927,-6.97937 4.14642,-9.91534 l 0.56659,-1.80279 5.3311,-0.12877 5.35686,-0.12877 0.69536,-0.79838 c 0.56659,-0.64385 0.82413,-1.31346 1.15894,-3.21926 1.49373,-8.39584 1.51949,-16.76593 0.12877,-24.87848 -0.2833,-1.59676 -0.6181,-3.16776 -0.77263,-3.50256 -0.54083,-1.21044 -1.05592,-1.33921 -6.64456,-1.46799 l -5.25384,-0.12877 -0.56659,-1.80278 c -0.92715,-2.93597 -2.62692,-7.03088 -4.14642,-9.91534 l -1.44223,-2.67843 3.63134,-3.50256 c 4.06915,-3.91463 4.30093,-4.35245 3.39954,-6.077972 -1.59676,-2.987477 -8.49886,-10.662205 -13.28913,-14.75711 -5.25384,-4.506971 -8.55036,-6.721826 -9.96684,-6.721826 -0.92715,0 -1.26195,0.257542 -4.58423,3.37379 -1.98307,1.854297 -3.65709,3.451052 -3.73435,3.579823 -0.0773,0.103016 -1.49374,-0.463574 -3.16776,-1.287706 -3.29653,-1.62251 -6.92786,-3.06474 -10.12137,-3.940381 l -2.03457,-0.56659 v -4.764512 c 0,-5.073562 -0.10302,-5.614399 -1.28771,-6.464285 -1.82854,-1.364968 -15.91605,-2.446641 -22.92117,-1.777034 z"
       style="fill:none;stroke:#000000;stroke-width:2;stroke-miterlimit:4;stroke-dasharray:none;stroke-opacity:1" />
    <path
       id="path40"
       d="m 105.86952,86.258821 c -4.80409,0.537106 -6.80331,0.865336 -9.309796,1.491956 -19.723642,4.92345 -35.180293,20.350263 -40.044065,39.954543 -1.193565,4.89361 -1.491955,7.45978 -1.491955,13.2784 0,5.81862 0.29839,8.38479 1.491955,13.2784 5.371038,21.6035 23.423689,37.83597 45.623971,41.0586 3.46135,0.50726 11.7566,0.50726 15.21795,0 22.20028,-3.22263 40.25293,-19.4551 45.62397,-41.0586 1.19357,-4.89361 1.49196,-7.45978 1.49196,-13.2784 0,-5.81862 -0.29839,-8.38479 -1.49196,-13.2784 -5.28152,-21.27527 -23.06562,-37.567416 -44.72881,-40.909393 -2.71535,-0.417749 -10.47351,-0.775818 -12.38322,-0.537106 z"
       style="fill:none;fill-opacity:1;stroke:#000000;stroke-width:2.12976;stroke-miterlimit:4;stroke-dasharray:none;stroke-opacity:1" />
    <path
       sodipodi:nodetypes="cccc"
       id="path948"
       d="m 68.46464,119.56401 v 42.76312 l 23.051951,-21.38156 z"
       style="fill:none;stroke:#000000;stroke-width:2;stroke-linecap:butt;stroke-linejoin:miter;stroke-miterlimit:4;stroke-dasharray:none;stroke-opacity:1" />
    <path
       style="fill:none;stroke:#000000;stroke-width:2;stroke-linecap:butt;stroke-linejoin:miter;stroke-miterlimit:4;stroke-dasharray:none;stroke-opacity:1"
       d="m 98.181254,119.96491 v 42.76312 l 23.051936,-21.38156 z"
       id="path948-7"
       sodipodi:nodetypes="cccc" />
    <path
       style="fill:none;stroke:#000000;stroke-width:2;stroke-linecap:butt;stroke-linejoin:miter;stroke-miterlimit:4;stroke-dasharray:none;stroke-opacity:1"
       d="m 127.89784,119.56401 v 42.76312 l 23.05195,-21.38156 z"
       id="path948-4"
       sodipodi:nodetypes="cccc" />
  </g>
</svg>
