<?xml version="1.0" encoding="UTF-8" standalone="no"?>
<svg
   xmlns:dc="http://purl.org/dc/elements/1.1/"
   xmlns:cc="http://creativecommons.org/ns#"
   xmlns:rdf="http://www.w3.org/1999/02/22-rdf-syntax-ns#"
   xmlns:svg="http://www.w3.org/2000/svg"
   xmlns="http://www.w3.org/2000/svg"
   xmlns:sodipodi="http://sodipodi.sourceforge.net/DTD/sodipodi-0.dtd"
   xmlns:inkscape="http://www.inkscape.org/namespaces/inkscape"
   sodipodi:docname="logo.svg"
   inkscape:version="1.0.2 (1.0.2+r75+1)"
   id="svg8"
   version="1.1"
   viewBox="0 0 156.37117 151.3069"
   height="151.3069mm"
   width="156.37117mm">
  <defs
     id="defs2" />
  <sodipodi:namedview
     inkscape:snap-global="true"
     inkscape:window-maximized="1"
     inkscape:window-y="38"
     inkscape:window-x="74"
     inkscape:window-height="1006"
     inkscape:window-width="1846"
     showgrid="false"
     inkscape:document-rotation="0"
     inkscape:current-layer="layer1"
     inkscape:document-units="mm"
     inkscape:cy="265.0794"
     inkscape:cx="345.1928"
     inkscape:zoom="0.81255531"
     inkscape:pageshadow="2"
     inkscape:pageopacity="0.0"
     borderopacity="1.0"
     bordercolor="#666666"
     pagecolor="#ffffff"
     id="base" />
  <metadata
     id="metadata5">
    <rdf:RDF>
      <cc:Work
         rdf:about="">
        <dc:format>image/svg+xml</dc:format>
        <dc:type
           rdf:resource="http://purl.org/dc/dcmitype/StillImage" />
        <dc:title />
      </cc:Work>
    </rdf:RDF>
  </metadata>
  <g
     id="layer1"
     inkscape:groupmode="layer"
     inkscape:label="Layer 1"
     transform="translate(-31.601869,-65.345229)">
    <path
       id="path38"
       style="fill:#f69200;fill-opacity:1;stroke:#383838;stroke-width:7.55906;stroke-miterlimit:4;stroke-dasharray:none;stroke-opacity:1"
       d="m 406.72461,250.76172 c -6.36452,0.0457 -12.27012,0.28719 -17.23438,0.76172 -13.91937,1.36274 -29.2018,3.7961 -33.58203,5.35351 -6.42433,2.33613 -6.71675,3.50452 -7.30078,24.62696 l -0.48633,18.88281 -12.84961,4.18555 c -13.82205,4.5749 -30.85614,11.68063 -38.83789,16.1582 l -4.96289,2.82226 -1.84961,-2.04296 c -0.97338,-1.16806 -7.39725,-7.29996 -14.21093,-13.62696 -11.48594,-10.80456 -12.65434,-11.58398 -16.25586,-11.58398 -4.38023,0 -12.7513,5.2558 -29.29883,18.39648 -19.66236,15.57415 -52.85437,51.29823 -58.5,63.07617 -3.11483,6.52169 -1.94815,8.56525 13.33398,23.16602 l 13.23828,12.75195 -4.38085,8.17578 c -6.13232,11.38859 -11.09602,22.87533 -15.37891,35.5293 l -3.60156,10.70703 -20.14844,0.48633 -20.14844,0.48633 -2.62891,3.01758 c -2.82281,3.11482 -3.50394,6.13166 -7.10546,29.10351 -1.65476,10.60989 -1.55742,51.98026 0,63.27149 2.0441,13.53006 3.98982,24.1394 5.06054,26.76758 2.04411,4.86689 3.89383,5.35315 25.21094,5.83984 l 19.75977,0.48633 3.60156,10.70703 c 4.28289,12.65397 9.24659,24.14038 15.37891,35.43164 l 4.38085,8.27344 -13.72461,13.14062 c -15.37946,14.89278 -16.25449,16.54863 -12.84765,23.07031 6.71635,12.55665 39.22699,47.59839 58.5,62.78321 16.54753,13.14066 24.9186,18.39648 29.29883,18.39648 3.60152,0 4.76992,-0.77945 16.25586,-11.58398 6.81368,-6.32701 13.23755,-12.45889 14.21093,-13.62696 l 1.84961,-2.04296 4.96289,2.82226 c 7.98175,4.47757 25.01584,11.58327 38.83789,16.1582 l 12.84961,4.18555 0.48633,19.07813 0.48633,19.07812 2.91992,2.91992 c 2.62814,2.53081 4.18599,3.01746 15.08789,4.76953 31.53764,5.06162 59.66961,5.25624 92.47266,0.58399 21.21978,-3.11482 21.41406,-3.30818 21.41406,-28.9082 v -17.81446 l 7.68945,-2.14062 c 12.06996,-3.30951 25.79458,-8.76026 38.25391,-14.89258 6.32701,-3.11482 11.68065,-5.25652 11.97266,-4.86719 0.29215,0.48669 6.61821,6.52092 14.11328,13.5293 17.81291,16.83953 17.2291,16.74277 38.35156,0.77929 25.1133,-18.98097 56.06659,-50.81112 66.28711,-68.33203 4.18556,-7.1057 3.4078,-8.66287 -12.26367,-23.84765 l -13.72461,-13.23828 5.45117,-10.12305 c 5.74299,-10.9019 12.16769,-26.37803 15.67188,-37.47461 l 2.14062,-6.81445 20.14844,-0.48633 20.24804,-0.48633 2.62696,-3.01758 c 2.14144,-2.43345 3.11543,-4.96494 4.38086,-12.16797 5.64559,-31.7323 5.74259,-63.36769 0.48633,-94.02929 -1.07074,-6.035 -2.33588,-11.97095 -2.91993,-13.23633 -2.04408,-4.57489 -3.99086,-5.0621 -25.11328,-5.54883 l -19.85742,-0.48633 -2.14062,-6.81445 c -3.50419,-11.09658 -9.92889,-26.57271 -15.67188,-37.47461 l -5.45117,-10.12305 13.72461,-13.23828 c 15.37946,-14.79545 16.25644,-16.451 12.84961,-22.97265 -6.035,-11.29126 -32.12356,-40.29859 -50.22852,-55.7754 -19.85703,-17.03422 -32.31629,-25.40429 -37.66992,-25.40429 -3.50419,0 -4.76952,0.97401 -17.32617,12.75195 -7.49507,7.00837 -13.82128,13.0426 -14.11328,13.5293 -0.29216,0.38935 -5.64565,-1.75236 -11.97266,-4.86719 -12.45933,-6.13232 -26.18395,-11.58307 -38.25391,-14.89258 l -7.68945,-2.14062 v -18.00781 c 0,-19.17567 -0.38962,-21.21948 -4.86719,-24.43165 -5.6152,-4.19163 -41.81689,-7.67654 -69.39648,-7.47851 z m 2.32617,74.9707 c 11.77294,0.074 30.19162,1.13028 37.88867,2.31446 16.22347,2.50278 31.86883,6.93498 46.6875,13.04687 h -70.84179 l 44.83789,41.58594 h 89.99414 c 28.0421,26.66444 48.72971,61.12487 58.37695,99.98633 4.51113,18.49553 5.63867,28.19391 5.63867,50.18554 0,21.99164 -1.12754,31.69002 -5.63867,50.18555 -20.29999,81.65102 -88.53093,143.00357 -172.4375,155.18359 -8.21789,1.20434 -23.64522,1.65247 -37.22461,1.34375 -8.03796,-0.18274 -15.42861,-0.63087 -20.29297,-1.34375 -10.21889,-1.48339 -20.2048,-3.69599 -29.90039,-6.58593 -69.91432,-20.83913 -124.70943,-76.89082 -142.53711,-148.59766 -4.51111,-18.49553 -5.63867,-28.19391 -5.63867,-50.18555 0,-21.99163 1.12756,-31.69001 5.63867,-50.18554 9.62777,-38.80639 30.24346,-73.27663 58.40039,-99.98633 h 117.66016 v 87.96679 l -18.58399,-17.23632 v 161.625 l 18.58399,-17.23633 v 102.71094 l 50.00977,-46.40625 V 551.41211 l 18.5332,-17.18945 -18.5332,-17.18946 V 411.375 l -75.7754,-70.28125 h -27.66601 c 8.57675,-3.52474 17.44099,-6.50483 26.55469,-8.88477 0.71996,-0.18801 1.441,-0.37224 2.16406,-0.55273 9.47333,-2.36833 17.03032,-3.60866 35.1875,-5.63867 1.25133,-0.15642 3.16586,-0.24409 5.53125,-0.27539 1.04556,-0.014 2.17989,-0.0178 3.38281,-0.01 z"
       transform="scale(0.26458333)" />
    <path
       id="path2850"
       style="fill:#f69200;fill-opacity:1;stroke:#383838;stroke-width:8.04949;stroke-miterlimit:4;stroke-dasharray:none;stroke-opacity:1"
       d="m 439.67186,708.73632 v 15.58593 l -16.79688,-2e-5 z"
       transform="scale(0.26458333)"
       sodipodi:nodetypes="cccc" />
    <path
       sodipodi:nodetypes="cccc"
       id="path948"
       d="m 68.46464,119.56401 v 42.76312 l 23.051951,-21.38156 z"
       style="fill:#f69200;fill-opacity:1;stroke:#383838;stroke-width:2;stroke-linecap:butt;stroke-linejoin:miter;stroke-miterlimit:4;stroke-dasharray:none;stroke-opacity:1" />
    <path
       style="fill:#f69200;fill-opacity:1;stroke:#383838;stroke-width:2;stroke-linecap:butt;stroke-linejoin:miter;stroke-miterlimit:4;stroke-dasharray:none;stroke-opacity:1"
       d="m 127.89784,119.56401 v 42.76312 l 23.05195,-21.38156 z"
       id="path948-4"
       sodipodi:nodetypes="cccc" />
  </g>
</svg>
